<?xml version="1.0" encoding="UTF-8"?>
<svg version="1.1" xmlns="http://www.w3.org/2000/svg" width="133" height="133">
<path d="M0 0 C43.89 0 87.78 0 133 0 C133 43.89 133 87.78 133 133 C89.11 133 45.22 133 0 133 C0 89.11 0 45.22 0 0 Z " fill="#1B1832" transform="translate(0,0)"/>
<path d="M0 0 C2.375 2 2.375 2 4 5 C4.68810408 13.694288 2.67459557 22.07806976 1 30.5625 C0.71017593 32.06300414 0.42110707 33.56365436 0.1328125 35.06445312 C-0.56942282 38.71136129 -1.28186879 42.35618444 -2 46 C11.31767536 48.84630101 23.61711066 49.25622205 36.19140625 42.890625 C39.2100291 41.40413254 41.70506859 41.65316511 45 42 C47.875 43.5625 47.875 43.5625 50 46 C51.08675938 50.98526302 50.90846901 54.93016884 49.890625 59.90234375 C49.76428177 60.53772064 49.63793854 61.17309753 49.50776672 61.82772827 C49.09978263 63.86679299 48.67574576 65.90207629 48.25 67.9375 C47.81963128 70.04021965 47.39193568 72.14346997 46.96461487 74.24681091 C46.68498889 75.62190935 46.40394699 76.99672067 46.1214447 78.37123108 C45.3839685 81.98495057 44.71495298 85.59366815 44.17578125 89.2421875 C42.69610388 99.24827734 39.63284302 106.74351195 31.375 113 C22.99037552 117.96866636 12.84301896 118.68801206 3.35546875 116.34765625 C-3.34551595 113.26811101 -8.56180254 107.40580364 -12 101 C-15.2522428 91.69135838 -16.01815432 81.74915005 -17 72 C-18.74796875 72.72896484 -18.74796875 72.72896484 -20.53125 73.47265625 C-27.44622019 76.05511761 -35.45066093 76.28598339 -42.5703125 74.2734375 C-46.8079877 72.29155898 -49.90983894 69.5193501 -53 66 C-53.680625 65.2575 -54.36125 64.515 -55.0625 63.75 C-59.62229885 57.27802744 -61.65703538 50.31285139 -62.921875 42.58203125 C-63.14644379 41.29071541 -63.14644379 41.29071541 -63.37554932 39.97331238 C-63.68677268 38.17009271 -63.99235882 36.3658916 -64.29248047 34.56079102 C-64.75091496 31.80700389 -65.22748238 29.05682153 -65.70703125 26.30664062 C-66.0088731 24.54445217 -66.30969021 22.78208782 -66.609375 21.01953125 C-66.74994324 20.20378128 -66.89051147 19.38803131 -67.03533936 18.54756165 C-68.82631809 7.69019609 -68.82631809 7.69019609 -66.625 3.1875 C-65 1 -65 1 -63 0 C-56.31129975 -0.74318892 -51.91046358 1.11701179 -45.82421875 3.8203125 C-42.50247806 5.20781691 -39.5909763 5.79282829 -36 6 C-34.783125 6.0825 -33.56625 6.165 -32.3125 6.25 C-24.77462578 6.13335978 -17.4798658 3.7231948 -10.625 0.75 C-6.69013409 -0.88322159 -4.12335142 -1.66897557 0 0 Z " fill="#65AAFB" transform="translate(70,11)"/>
<path d="M0 0 C2.875 1.5625 2.875 1.5625 5 4 C6.08675938 8.98526302 5.90846901 12.93016884 4.890625 17.90234375 C4.76428177 18.53772064 4.63793854 19.17309753 4.50776672 19.82772827 C4.09978263 21.86679299 3.67574576 23.90207629 3.25 25.9375 C2.81963128 28.04021965 2.39193568 30.14346997 1.96461487 32.24681091 C1.68498889 33.62190935 1.40394699 34.99672067 1.1214447 36.37123108 C0.3839685 39.98495057 -0.28504702 43.59366815 -0.82421875 47.2421875 C-2.30389612 57.24827734 -5.36715698 64.74351195 -13.625 71 C-22.00962448 75.96866636 -32.15698104 76.68801206 -41.64453125 74.34765625 C-48.33537149 71.27277306 -53.58135345 65.40757496 -57 59 C-59.93870923 50.11856767 -63.14132061 38.3841917 -62 29 C-60.42578125 27.40234375 -60.42578125 27.40234375 -58.3125 25.9375 C-51.53810704 20.46033123 -49.18509252 12.39544493 -48 4 C-47.34515625 4.144375 -46.6903125 4.28875 -46.015625 4.4375 C-33.15615186 7.05298606 -20.81424277 6.96835107 -8.80859375 0.890625 C-5.7899709 -0.59586746 -3.29493141 -0.34683489 0 0 Z " fill="#F4D030" transform="translate(115,53)"/>
<path d="M0 0 C4.28357449 0.47595272 6.058409 3.058409 9 6 C15.62827264 9.78758436 21.67834682 11.01232146 29.23828125 9.57421875 C34.75381744 8.02148576 38.29060219 5.4073518 42.37109375 1.42578125 C44 0 44 0 46 0 C46.74270732 5.94165857 44.5255741 9.46434407 41 14 C36.43589039 18.44400146 32.01414451 20.94027919 25.6484375 21.06640625 C16.32701681 20.58561718 10.40925764 19.10215036 4 12 C3.4225 11.401875 2.845 10.80375 2.25 10.1875 C0.36396939 6.88694643 0.31438555 3.77262662 0 0 Z " fill="#1B1936" transform="translate(15,53)"/>
<path d="M0 0 C4.12236148 3.57271328 8.20232945 7.41630612 9 13 C9.03888349 15.33300933 9.0448635 17.66709801 9 20 C8.278125 19.2575 7.55625 18.515 6.8125 17.75 C1.18339614 12.24598734 -3.35188761 8.72190686 -11.4375 8.6875 C-17.64499138 8.82081525 -21.13267307 10.30243007 -25.75 14.5 C-28.09105078 16.9802437 -28.09105078 16.9802437 -30 20 C-30.66 20 -31.32 20 -32 20 C-32.72318877 13.49130105 -31.34716663 9.68899048 -27.78515625 4.20703125 C-20.84848565 -4.36894006 -9.31260132 -4.94058007 0 0 Z " fill="#201B33" transform="translate(96,94)"/>
<path d="M0 0 C2.4375 2.3125 2.4375 2.3125 4 5 C3.75 7.3125 3.75 7.3125 3 9 C2.484375 8.34 1.96875 7.68 1.4375 7 C-0.93302698 4.69228266 -0.93302698 4.69228266 -4.5 4.5625 C-8.06051786 5.00756473 -9.45687431 5.55859934 -12 8 C-11.75475087 4.32126307 -11.63076 2.55867315 -8.8125 0.0625 C-5.2824565 -1.27107199 -3.56856053 -1.21482912 0 0 Z " fill="#1E1D3C" transform="translate(53,37)"/>
<path d="M0 0 C1.9375 1.875 1.9375 1.875 3 4 C2.6875 6.25 2.6875 6.25 2 8 C1.484375 7.34 0.96875 6.68 0.4375 6 C-1.92753979 3.7084056 -1.92753979 3.7084056 -5.4375 3.5 C-9.4818175 4.06762351 -11.10684686 5.19451816 -14 8 C-13.19677934 3.74293052 -12.78399851 1.58799888 -9.25 -1.0625 C-5.27561039 -2.20895854 -3.65605219 -1.8686489 0 0 Z " fill="#1D1D3D" transform="translate(33,38)"/>
<path d="M0 0 C2.5 1.75 2.5 1.75 4 4 C3.75 6.25 3.75 6.25 3 8 C2.46375 7.505 1.9275 7.01 1.375 6.5 C-1.71852796 4.54619287 -3.39369166 4.48481309 -7 5 C-9.84920053 6.87769142 -9.84920053 6.87769142 -12 9 C-11.52 3.6 -11.52 3.6 -9.375 1.125 C-6.02604821 -0.46134558 -3.65973254 -0.45746657 0 0 Z " fill="#251E33" transform="translate(99,79)"/>
<path d="M0 0 C2.5625 2.25 2.5625 2.25 4 5 C3.75 7.3125 3.75 7.3125 3 9 C2.46375 8.34 1.9275 7.68 1.375 7 C-0.86972207 4.76694052 -0.86972207 4.76694052 -3.9375 4.5 C-7.63396685 5.10350479 -9.30505778 6.46358379 -12 9 C-11.67815583 6.10340247 -11.38591512 3.68102669 -9.9375 1.125 C-6.75275013 -0.7242096 -3.51239214 -0.7617236 0 0 Z " fill="#211C32" transform="translate(78,79)"/>
<path d="M0 0 C0.66 0 1.32 0 2 0 C3.85776765 3.13498292 4.20140476 5.37471432 4 9 C4.66 9 5.32 9 6 9 C6 6.69 6 4.38 6 2 C6.66 2.33 7.32 2.66 8 3 C8 5.31 8 7.62 8 10 C7.24074219 10.13277344 6.48148438 10.26554687 5.69921875 10.40234375 C4.70535156 10.57894531 3.71148437 10.75554687 2.6875 10.9375 C1.70136719 11.11152344 0.71523437 11.28554687 -0.30078125 11.46484375 C-3.08189213 11.95746847 -3.08189213 11.95746847 -6 13 C-6 12.34 -6 11.68 -6 11 C-3.35261084 9.5393715 -2.10551666 9 1 9 C1.07427838 5.65747276 1.06546953 3.1964086 0 0 Z " fill="#E4A933" transform="translate(80,81)"/>
<path d="M0 0 C0 0.33 0 0.66 0 1 C-1.36125 1.37125 -1.36125 1.37125 -2.75 1.75 C-6.10351489 3.03981342 -7.67708236 4.31971042 -10 7 C-10.99 6.67 -11.98 6.34 -13 6 C-12.67 4.35 -12.34 2.7 -12 1 C-11.34 1.66 -10.68 2.32 -10 3 C-9.649375 2.505 -9.29875 2.01 -8.9375 1.5 C-6.05625711 -0.73063966 -3.52990974 -0.19980621 0 0 Z " fill="#6691EC" transform="translate(52,41)"/>
</svg>
